<?xml version="1.0" encoding="utf-8"?>
<!-- Generator: Adobe Illustrator 24.3.0, SVG Export Plug-In . SVG Version: 6.00 Build 0)  -->
<svg version="1.1" id="Ebene_1" xmlns="http://www.w3.org/2000/svg" xmlns:xlink="http://www.w3.org/1999/xlink" x="0px" y="0px"
	 viewBox="0 0 48 48" style="enable-background:new 0 0 48 48;" xml:space="preserve">
<style type="text/css">
	.st0{fill:#1A171B;}
</style>
<g>
	<path class="st0" d="M18,26c0.2,0,0.3,0,0.5,0h3.2c-0.8-0.5-1.2-1.2-1.3-2h-1.9c-1,0-1.2-0.3-1.2-1.2v-1.5c0-0.6-0.4-1-1-1
		s-1,0.4-1,1v1.5C15.2,24.4,16.4,25.8,18,26z"/>
	<path class="st0" d="M39.8,28.5V26h1.2c0.6,0,1-0.4,1-1s-0.4-1-1-1h-1.2V16c0-2.3-1.6-4.2-3.8-4.7c0-0.1,0-0.3,0-0.4
		c0-1.1-0.9-2-2-2s-2,0.9-2,2c0,0.1,0,0.2,0,0.2h-2c0-0.1,0-0.2,0-0.2c0-1.1-0.9-2-2-2s-2,0.9-2,2c0,0.1,0,0.2,0,0.2h-2
		c0-0.1,0-0.2,0-0.2c0-1.1-0.9-2-2-2s-2,0.9-2,2c0,0.1,0,0.2,0,0.2h-1.8c0-0.1,0-0.2,0-0.2c0-1.1-0.9-2-2-2c-1.1,0-2,0.9-2,2
		c0,0.1,0,0.2,0,0.3c-2.3,0.4-4.1,2.4-4.1,4.7v5.7H7.9v-5c0-0.6-0.4-1-1-1s-1,0.4-1,1v12c0,0.6,0.4,1,1,1s1-0.4,1-1v-5h2.1V29
		c0,2.7,2.2,4.8,4.9,4.8h8.9l3.3,4.8c0.2,0.3,0.5,0.4,0.8,0.4h7c2.5,0,4.6-1.9,4.8-4.4c1.9,0,2.3-0.5,2.3-2.2v-1.7
		C42.1,28.9,41.8,28.5,39.8,28.5z M14.9,13.2h20c1.4,0,2.7,1.1,2.8,2.5H12.1C12.3,14.3,13.5,13.2,14.9,13.2z M37.8,24h-1.2
		c-1,0-1.2-0.3-1.2-1.2v-1.5c0-0.6-0.4-1-1-1s-1,0.4-1,1v1.5c-0.1,1.7,1.1,3.1,2.7,3.2c0.2,0,0.3,0,0.5,0h1.2v8.3
		c0,1.6-1.3,2.8-2.9,2.8h-6.5l-3.3-4.8c-0.2-0.3-0.5-0.4-0.8-0.4h-9.4c-1.6,0-2.9-1.2-2.9-2.8c0,0,0,0,0,0V17.7h25.8V24z"/>
	<path class="st0" d="M24,26c0.2,0,0.3,0,0.5,0h3.2c-0.8-0.5-1.2-1.2-1.3-2h-1.9c-1,0-1.2-0.3-1.2-1.2v-1.5c0-0.6-0.4-1-1-1
		c-0.6,0-1,0.4-1,1v1.5C21.2,24.4,22.4,25.8,24,26z"/>
	<path class="st0" d="M30,26c0.2,0,0.3,0,0.5,0h3.2c-0.8-0.5-1.2-1.2-1.3-2h-1.9c-1,0-1.2-0.3-1.2-1.2v-1.5c0-0.6-0.4-1-1-1
		s-1,0.4-1,1v1.5C27.2,24.4,28.4,25.8,30,26z"/>
</g>
</svg>
