<svg id="Ebene_1" data-name="Ebene 1" xmlns="http://www.w3.org/2000/svg" width="36.13" height="30.13" viewBox="0 0 36.13 30.13">
  <defs>
    <style>
      .cls-1 {
        fill: #1a171b;
      }
    </style>
  </defs>
  <g>
    <path class="cls-1" d="M20.44,23.94H18.56c-1,0-1.25-.28-1.25-1.25v-1.5a1,1,0,0,0-2,0v1.5a3,3,0,0,0,3.25,3.25h3A3.31,3.31,0,0,1,20.44,23.94Z" transform="translate(-5.94 -8.94)"/>
    <path class="cls-1" d="M26.44,23.94H24.56c-1,0-1.25-.28-1.25-1.25v-1.5a1,1,0,0,0-2,0v1.5a3,3,0,0,0,3.25,3.25h3A3.31,3.31,0,0,1,26.44,23.94Z" transform="translate(-5.94 -8.94)"/>
    <path class="cls-1" d="M32.44,23.94H30.56c-1,0-1.25-.28-1.25-1.25v-1.5a1,1,0,0,0-2,0v1.5a3,3,0,0,0,3.25,3.25h3A3.31,3.31,0,0,1,32.44,23.94Z" transform="translate(-5.94 -8.94)"/>
    <path class="cls-1" d="M39.81,28.45V25.94h1.25a1,1,0,0,0,0-2H39.81V16A4.81,4.81,0,0,0,36,11.32a1.64,1.64,0,0,0,0-.38,2,2,0,1,0-4,0,2.42,2.42,0,0,0,0,.25H30a2.29,2.29,0,0,0,0-.25,2,2,0,0,0-4,0,2.42,2.42,0,0,0,0,.25H24a2.29,2.29,0,0,0,0-.25,2,2,0,0,0-4,0,2.42,2.42,0,0,0,0,.25H18.16a2.42,2.42,0,0,0,0-.25,2,2,0,0,0-4,0,1.73,1.73,0,0,0,0,.32A4.81,4.81,0,0,0,10.06,16v5.7H7.94v-5a1,1,0,1,0-2,0v12a1,1,0,0,0,2,0v-5h2.12V29a4.85,4.85,0,0,0,4.88,4.8h8.91l3.28,4.8a1,1,0,0,0,.82.43h7a4.84,4.84,0,0,0,4.83-4.35c1.88,0,2.29-.47,2.29-2.23V30.72C42.06,28.91,41.85,28.49,39.81,28.45ZM14.94,13.19h20a2.84,2.84,0,0,1,2.84,2.5H12.09A2.85,2.85,0,0,1,14.94,13.19Zm20,23.87H28.48l-3.27-4.79a1,1,0,0,0-.83-.44H14.94A2.85,2.85,0,0,1,12.06,29V17.69H37.81v6.25H36.56c-1,0-1.25-.28-1.25-1.25v-1.5a1,1,0,1,0-2,0v1.5a3,3,0,0,0,3.25,3.25h1.25v8.32A2.84,2.84,0,0,1,34.94,37.06Z" transform="translate(-5.94 -8.94)"/>
  </g>
</svg>
