<?xml version="1.0" encoding="utf-8"?>
<!-- Generator: Adobe Illustrator 24.3.0, SVG Export Plug-In . SVG Version: 6.00 Build 0)  -->
<svg version="1.1" id="Ebene_1" xmlns="http://www.w3.org/2000/svg" xmlns:xlink="http://www.w3.org/1999/xlink" x="0px" y="0px"
	 viewBox="0 0 128 128" style="enable-background:new 0 0 128 128;" xml:space="preserve">
<style type="text/css">
	.st0{fill:#443D6F;}
</style>
<g>
	<path class="st0" d="M97.6,80.5l-14,16.8l-9-11.5c-0.6-0.9-1.8-1-2.7-0.3c-0.9,0.6-1,1.8-0.3,2.7l10.5,13.3
		c0.3,0.4,0.9,0.7,1.5,0.7l0,0c0.5,0,1.1-0.2,1.5-0.6l15.6-18.6c0.6-0.9,0.5-2-0.2-2.7C99.5,79.6,98.3,79.7,97.6,80.5z"/>
	<path class="st0" d="M121.3,81.9h-10.4v-6.9h9.8c2.1,0,3.8-1.6,3.8-3.7c0,0,0,0,0-0.1v-4.7c0-2.1-1.7-3.8-3.8-3.8h-9.8v-24
		c0-6.4-3.4-10.7-9.1-11.9l0,0c0-0.2,0-0.4,0-0.6c0-4.5-3.6-8.1-8.1-8.1c-4.5,0-8.1,3.6-8.1,8.1c0,0.1,0,0.2,0,0.2H83
		c0-0.1,0-0.2,0-0.2c0-4.5-3.6-8.1-8.1-8.1c-4.5,0-8.1,3.6-8.1,8.1c0,0.1,0,0.2,0,0.2h-2.6c0-0.1,0-0.2,0-0.2c0-4.5-3.6-8.1-8.1-8.1
		s-8.1,3.6-8.1,8.1c0,0.1,0,0.2,0,0.2h-2.1c0-0.1,0-0.2,0-0.2c0-4.5-3.6-8.1-8.1-8.1s-8.1,3.6-8.1,8.1c0,0.2,0,0.4,0,0.6
		c-5.7,1.2-9.1,5.5-9.1,11.9V56h-5.6V44c0-1.8-1.5-3.3-3.3-3.3l0,0H7.2c-1.8,0-3.2,1.4-3.2,3.2v35.4c0,1.8,1.5,3.3,3.2,3.3l0,0h4.6
		c1.8,0,3.3-1.5,3.3-3.2l0,0V67.3h5.6V81c0,7.8,4.9,12.8,12.4,12.8h25.4l0,0c0.7,0,1.4,0.4,1.7,1.1c0.1,0.1,0.1,0.2,0.2,0.3
		l8.6,10.8c1.5,2.3,3.3,4.7,7.3,4.7H99c8,0,11.8-3.5,11.8-10.8v-1.7h10.4c1.8,0,3.4-1.5,3.4-3.4v-9.4
		C124.6,83.3,123.1,81.9,121.3,81.9z M11.5,78.9H7.8V44.4h3.7V78.9z M20.9,63.4h-5.7v-3.7h5.7C20.9,59.6,20.9,63.4,20.9,63.4z
		 M93.7,21.8c2.4,0,4.4,1.9,4.4,4.4c0,0.1,0,0.2,0,0.2h-8.7c0-0.1,0-0.2,0-0.2C89.3,23.7,91.2,21.8,93.7,21.8z M75,21.8
		c2.4,0,4.4,1.9,4.4,4.4c0,0.1,0,0.2,0,0.2h-8.7c0-0.1,0-0.2,0-0.2C70.6,23.7,72.5,21.8,75,21.8z M56.4,21.8c2.4,0,4.4,1.9,4.4,4.4
		c0,0.1,0,0.2,0,0.2H52c0-0.1,0-0.2,0-0.2C52,23.7,53.9,21.8,56.4,21.8z M38.1,21.8c2.4,0,4.4,1.9,4.4,4.4c0,0.1,0,0.2,0,0.2h-8.7
		c0-0.1,0-0.2,0-0.2C33.7,23.7,35.6,21.8,38.1,21.8z M24.6,38.6c0-5.5,3.1-8.5,8.8-8.5h65.1c5.6,0,8.8,3,8.8,8.5v2H24.8
		c-0.1,0-0.1,0-0.2,0V38.6z M107.2,99.7c0,5.2-2.2,7.1-8.1,7.1H76.6c-1.8,0-2.8-0.6-4.3-3c0-0.1-0.1-0.1-0.1-0.2l-8.5-10.8
		c-1-1.7-2.9-2.8-4.9-2.8l0,0H33.3c-5.5,0-8.8-3.4-8.8-9V44.3c0.1,0,82.6,0,82.6,0v18.3h-5.3h-1.9v-5.7c0-3.2-1.8-6.6-5.7-6.7h-0.2
		c-3.4,0-6.2,2.9-6.1,6.3v6.3H83h-1.9V57c0-3.2-1.8-6.6-5.7-6.7h-0.2c-3.4,0-6.1,2.9-6.1,6.3v6.3h-4.7h-1.9v-5.7
		c0-3.2-1.8-6.6-5.7-6.7h-0.2c-3.4,0-6.1,2.9-6.1,6.3v6.3h-6.7v-5.7c0-3.2-1.8-6.6-5.7-6.7h-0.2c-3.4,0-6.1,2.9-6.1,6.3V64
		c0,5.5,0,11.3,8.6,11.3h67v24.5H107.2z M80.2,66.4h7.7c0.1,1.8,0.3,3.5,1,4.9H77.6c-4.5,0-4.9-1.1-4.9-7.5v-7.2
		c0-1.9,1-2.8,2.4-2.8c1.8,0,2.2,1.5,2.2,2.9v7.2C77.4,66,77.9,66.4,80.2,66.4z M61.5,66.4h7.7c0.1,1.8,0.3,3.5,1,4.9H58.9
		c-4.5,0-4.9-1.1-4.9-7.5v-7.2c0-1.9,1-2.8,2.4-2.8c1.8,0,2.2,1.5,2.2,2.9v7.2C58.7,66,59.1,66.4,61.5,66.4z M42.8,66.4h7.7
		c0.1,1.8,0.3,3.5,1,4.9H40.2c-4.5,0-4.9-1.1-4.9-7.5v-7.2c0-1.9,1-2.8,2.4-2.8c1.8,0,2.2,1.5,2.2,2.9v7.2
		C40,66,40.4,66.4,42.8,66.4z M96.3,71.2c-4.5,0-4.9-1.1-4.9-7.5v-7.2c0-1.9,1-2.8,2.4-2.8c1.8,0,2.2,1.5,2.2,2.9v7.2
		c0,2.1,0.4,2.6,2.8,2.6h21.7c0,0,0.1,0,0.1,0.1v4.7c0,0,0,0.1-0.1,0.1C120.6,71.2,96.3,71.2,96.3,71.2z M120.9,94.3h-10.1v-8.7
		h10.1V94.3z"/>
</g>
</svg>
