<?xml version="1.0" encoding="utf-8"?>
<!-- Generator: Adobe Illustrator 24.3.0, SVG Export Plug-In . SVG Version: 6.00 Build 0)  -->
<svg version="1.1" id="Ebene_1" xmlns="http://www.w3.org/2000/svg" xmlns:xlink="http://www.w3.org/1999/xlink" x="0px" y="0px"
	 viewBox="0 0 128 128" style="enable-background:new 0 0 128 128;" xml:space="preserve">
<style type="text/css">
	.st0{fill:#443D6F;}
</style>
<g>
	<path class="st0" d="M17.2,15.2c-0.2,0.5-0.3,1-0.5,1.6c-0.2,0.5-0.3,1.1-0.5,1.7h-0.1c-0.2-0.5-0.3-1.1-0.5-1.7
		c-0.2-0.6-0.3-1.1-0.5-1.6l-2.8-7.6H7.1v18.5h4.4v-5.5c0-0.5,0-1-0.1-1.6c-0.1-0.6-0.2-1.2-0.2-1.8s-0.1-1.1-0.2-1.6
		c0-0.5-0.1-1.1-0.2-1.5h0.1l1.5,4.5l2.3,6h2.6l2.3-6.1l1.5-4.5h0.1c-0.1,0.5-0.1,1-0.2,1.5c-0.1,0.5-0.1,1.2-0.2,1.8
		c-0.1,0.6-0.1,1.2-0.2,1.8c-0.1,0.6-0.1,1.1-0.1,1.6v5.5H25V7.6h-5.2L17.2,15.2z"/>
	<path class="st0" d="M53.8,22.6c-0.2,0-0.4,0.1-0.7,0.1c-0.4,0-0.9-0.2-1.2-0.4c-0.4-0.5-0.6-1-0.5-1.6v-5h3.2v-3.8h-3.2V8.2h-4.1
		l-0.6,3.7l-2.2,0.2v3.6h1.9v5c0,0.8,0.1,1.6,0.3,2.4c0.2,0.7,0.5,1.3,0.9,1.8s1,0.9,1.6,1.2c0.8,0.3,1.6,0.4,2.4,0.4
		c0.7,0,1.4,0,2-0.2c0.5-0.1,1-0.2,1.4-0.3l-0.8-3.5C54.2,22.5,54,22.6,53.8,22.6z"/>
	<path class="st0" d="M67.4,13.5c-0.6-0.6-1.4-1.1-2.3-1.5c-1.7-0.7-3.6-0.7-5.3,0c-0.8,0.3-1.6,0.8-2.3,1.5s-1.2,1.5-1.6,2.3
		c-0.4,1-0.6,2.1-0.6,3.2s0.2,2.2,0.6,3.2c0.4,0.9,0.9,1.7,1.6,2.3c0.6,0.6,1.4,1.1,2.3,1.5c0.8,0.3,1.7,0.5,2.7,0.5
		c0.9,0,1.8-0.2,2.6-0.5c0.8-0.3,1.6-0.8,2.3-1.5c0.7-0.7,1.2-1.5,1.6-2.3c0.4-1,0.6-2.1,0.6-3.2s-0.2-2.2-0.6-3.2
		C68.6,15,68.1,14.2,67.4,13.5z M64.1,21.6c-0.3,0.6-0.9,1-1.6,1c-0.7,0-1.3-0.4-1.6-1c-0.4-0.8-0.5-1.7-0.5-2.6s0.1-1.8,0.5-2.6
		c0.3-0.6,0.9-1,1.6-1c0.7,0,1.3,0.4,1.6,1c0.3,0.8,0.5,1.7,0.5,2.6C64.6,19.9,64.4,20.7,64.1,21.6z"/>
	<path class="st0" d="M81,16.1l0.8-4.2c-0.2-0.1-0.5-0.2-0.7-0.2c-0.4-0.1-0.7-0.1-1.1-0.1c-0.8,0-1.5,0.2-2.2,0.7
		c-0.8,0.5-1.5,1.3-1.9,2.1h-0.1l-0.3-2.5h-4v14.3h4.9v-7.9c0.2-0.8,0.7-1.4,1.4-1.9c0.5-0.3,1-0.5,1.6-0.5c0.3,0,0.6,0,0.8,0.1
		L81,16.1z"/>
	<path class="st0" d="M82.2,22c-0.6,0-1.1,0.2-1.5,0.6c-0.8,0.9-0.8,2.3,0,3.2c0.4,0.4,1,0.6,1.5,0.6c0.6,0,1.1-0.2,1.5-0.6
		c0.8-0.9,0.8-2.3,0-3.2C83.3,22.3,82.8,22,82.2,22z"/>
	<path class="st0" d="M94.7,16.9c0,0.8,0,1.7,0.1,2.7c0.1,0.9,0.2,1.8,0.3,2.5H95l-1.4-3.2l-3.7-7.1h-3.3v14.3h3v-5
		c0-0.9-0.1-1.8-0.2-2.6c-0.1-0.9-0.2-1.8-0.2-2.5h0.1l1.4,3.1l3.7,7.1h3.3V11.9h-3.1L94.7,16.9L94.7,16.9z"/>
	<polygon class="st0" points="103.4,20.2 108.3,20.2 108.3,17.5 103.4,17.5 103.4,14.6 109.1,14.6 109.1,11.9 100.2,11.9 
		100.2,26.1 109.3,26.1 109.3,23.4 103.4,23.4 	"/>
	<polygon class="st0" points="110.6,11.9 110.6,14.6 114.5,14.6 114.5,26.1 117.8,26.1 117.8,14.6 121.7,14.6 121.7,11.9 	"/>
	<path class="st0" d="M43.8,17.6l-1.5-0.3c-0.2-0.7-0.4-1.3-0.8-1.9l0.8-1.2c0.4-0.6,0.7-0.8,0-1.5l-0.5-0.5
		c-0.6-0.6-0.7-0.3-1.4,0.1l-1.2,0.8c-0.6-0.4-1.2-0.6-1.9-0.8L37,10.8c-0.1-0.7-0.1-1-1.1-1h-0.8c-0.8,0-0.7,0.3-0.9,1l-0.3,1.5
		c-0.7,0.2-1.3,0.4-1.9,0.8l-1.2-0.8c-0.6-0.4-0.8-0.7-1.5,0l-0.5,0.5c-0.6,0.6-0.3,0.7,0.1,1.4l0.8,1.2c-0.4,0.6-0.7,1.2-0.9,1.9
		l-1.5,0.3c-0.7,0.1-1,0.1-1,1.1v0.8c0,0.8,0.3,0.7,1,0.9l1.5,0.3c0.2,0.7,0.4,1.3,0.8,1.9l-0.8,1.2c-0.4,0.6-0.7,0.8,0,1.5l0.5,0.6
		c0.6,0.6,0.7,0.3,1.4-0.1L32,25c0.6,0.4,1.2,0.6,1.9,0.8l0.3,1.5c0.1,0.7,0.1,1,1.1,1h0.8c0.8,0,0.7-0.3,0.9-1l0.2-1.4
		c0.7-0.2,1.3-0.4,1.9-0.8l1.2,0.8c0.6,0.4,0.8,0.7,1.5,0l0.5-0.5c0.6-0.6,0.3-0.7-0.1-1.4l-0.7-1.4c0.4-0.6,0.6-1.2,0.8-1.9
		l1.5-0.3c0.7-0.1,1-0.1,1-1.1v-0.7C44.8,17.8,44.5,17.8,43.8,17.6z M35.6,23c-2.2,0-4-1.8-4-4s1.8-4,4-4s4,1.8,4,4S37.8,23,35.6,23
		z"/>
	<path class="st0" d="M35.6,17.2c-1,0-1.8,0.8-1.8,1.8s0.8,1.8,1.8,1.8s1.8-0.8,1.8-1.8C37.3,18,36.5,17.2,35.6,17.2z"/>
</g>
<g>
	<path class="st0" d="M95,91.6l-13.2,15.8l-8.5-10.8c-0.6-0.8-1.7-0.9-2.5-0.3s-0.9,1.7-0.3,2.5l9.9,12.5c0.3,0.4,0.8,0.7,1.4,0.7
		l0,0c0.5,0,1-0.2,1.4-0.6l14.7-17.5c0.6-0.8,0.5-1.9-0.2-2.5C96.8,90.8,95.6,90.9,95,91.6z"/>
	<path class="st0" d="M117.3,92.9h-9.8v-6.5h9.2c2,0,3.6-1.5,3.6-3.5c0,0,0,0,0-0.1v-4.4c0-2-1.6-3.6-3.6-3.6h-9.2V52.2
		c0-6-3.2-10.1-8.6-11.2l0,0c0-0.2,0-0.4,0-0.6c0-4.2-3.4-7.6-7.6-7.6s-7.6,3.4-7.6,7.6c0,0.1,0,0.2,0,0.2h-2.4c0-0.1,0-0.2,0-0.2
		c0-4.2-3.4-7.6-7.6-7.6s-7.6,3.4-7.6,7.6c0,0.1,0,0.2,0,0.2h-2.4c0-0.1,0-0.2,0-0.2c0-4.2-3.4-7.6-7.6-7.6s-7.6,3.4-7.6,7.6
		c0,0.1,0,0.2,0,0.2h-2c0-0.1,0-0.2,0-0.2c0-4.2-3.4-7.6-7.6-7.6s-7.6,3.4-7.6,7.6c0,0.2,0,0.4,0,0.6c-5.4,1.1-8.6,5.2-8.6,11.2
		v16.4h-5.3V57.3c0-1.7-1.4-3.1-3.1-3.1l0,0H10c-1.7,0-3,1.3-3,3v33.3c0,1.7,1.4,3.1,3,3.1l0,0h4.3c1.7,0,3.1-1.4,3.1-3l0,0V79.2
		h5.3v12.9c0,7.3,4.6,12,11.7,12h23.9l0,0c0.7,0,1.3,0.4,1.6,1c0.1,0.1,0.1,0.2,0.2,0.3l8.1,10.2c1.4,2.2,3.1,4.4,6.9,4.4h21.2
		c7.5,0,11.1-3.3,11.1-10.2v-1.6h9.8c1.7,0,3.2-1.4,3.2-3.2v-8.8C120.4,94.3,119,92.9,117.3,92.9z M14,90.1h-3.5V57.7H14V90.1z
		 M22.8,75.5h-5.4V72h5.4C22.8,72,22.8,75.5,22.8,75.5z M91.3,36.4c2.3,0,4.1,1.8,4.1,4.1c0,0.1,0,0.2,0,0.2h-8.2c0-0.1,0-0.2,0-0.2
		C87.2,38.2,89,36.4,91.3,36.4z M73.7,36.4c2.3,0,4.1,1.8,4.1,4.1c0,0.1,0,0.2,0,0.2h-8.2c0-0.1,0-0.2,0-0.2
		C69.6,38.2,71.4,36.4,73.7,36.4z M56.2,36.4c2.3,0,4.1,1.8,4.1,4.1c0,0.1,0,0.2,0,0.2h-8.2c0-0.1,0-0.2,0-0.2
		C52.1,38.2,53.9,36.4,56.2,36.4z M39,36.4c2.3,0,4.1,1.8,4.1,4.1c0,0.1,0,0.2,0,0.2h-8.2c0-0.1,0-0.2,0-0.2
		C34.9,38.2,36.7,36.4,39,36.4z M26.3,52.2c0-5.2,2.9-8,8.3-8h61.2c5.3,0,8.3,2.8,8.3,8v1.9H26.5c-0.1,0-0.1,0-0.2,0V52.2z
		 M104,109.7c0,4.9-2.1,6.7-7.6,6.7H75.2c-1.7,0-2.6-0.6-4-2.8c0-0.1-0.1-0.1-0.1-0.2l-8-10.2c-0.9-1.6-2.7-2.6-4.6-2.6l0,0h-24
		c-5.2,0-8.3-3.2-8.3-8.5V57.6c0.1,0,77.7,0,77.7,0v17.2h-5h-1.8v-5.4c0-3-1.7-6.2-5.4-6.3h-0.2c-3.2,0-5.8,2.7-5.7,5.9v5.9h-4.5
		h-1.8v-5.4c0-3-1.7-6.2-5.4-6.3h-0.2c-3.2,0-5.7,2.7-5.7,5.9V75h-4.4H62v-5.4c0-3-1.7-6.2-5.4-6.3h-0.2c-3.2,0-5.7,2.7-5.7,5.9v5.9
		h-6.3v-5.4c0-3-1.7-6.2-5.4-6.3h-0.2c-3.2,0-5.7,2.7-5.7,5.9v6.8c0,5.2,0,10.6,8.1,10.6h63v23H104z M78.6,78.4h7.2
		c0.1,1.7,0.3,3.3,0.9,4.6H76.2c-4.2,0-4.6-1-4.6-7.1v-6.8c0-1.8,0.9-2.6,2.3-2.6c1.7,0,2.1,1.4,2.1,2.7V76
		C76,78,76.5,78.4,78.6,78.4z M61,78.4h7.2c0.1,1.7,0.3,3.3,0.9,4.6H58.6c-4.2,0-4.6-1-4.6-7.1v-6.8c0-1.8,0.9-2.6,2.3-2.6
		c1.7,0,2.1,1.4,2.1,2.7V76C58.4,78,58.8,78.4,61,78.4z M43.4,78.4h7.2c0.1,1.7,0.3,3.3,0.9,4.6H41c-4.2,0-4.6-1-4.6-7.1v-6.8
		c0-1.8,0.9-2.6,2.3-2.6c1.7,0,2.1,1.4,2.1,2.7V76C40.8,78,41.2,78.4,43.4,78.4z M93.8,82.9c-4.2,0-4.6-1-4.6-7.1V69
		c0-1.8,0.9-2.6,2.3-2.6c1.7,0,2.1,1.4,2.1,2.7v6.8c0,2,0.4,2.4,2.6,2.4h20.4c0,0,0.1,0,0.1,0.1v4.4c0,0,0,0.1-0.1,0.1
		C116.6,82.9,93.8,82.9,93.8,82.9z M116.9,104.6h-9.5v-8.2h9.5V104.6z"/>
</g>
</svg>
