<?xml version="1.0" encoding="utf-8"?>
<!-- Generator: Adobe Illustrator 24.3.0, SVG Export Plug-In . SVG Version: 6.00 Build 0)  -->
<svg version="1.1" id="Ebene_1" xmlns="http://www.w3.org/2000/svg" xmlns:xlink="http://www.w3.org/1999/xlink" x="0px" y="0px"
	 viewBox="0 0 128 128" style="enable-background:new 0 0 128 128;" xml:space="preserve">
<style type="text/css">
	.st0{fill:#443D6F;}
	.st1{fill:#AFBDC2;}
	.st2{fill:#FFFFFF;}
</style>
<g>
	<g>
		<path class="st0" d="M121,82.7h-10.4v-6.9h9.7c2.1,0,3.8-1.6,3.8-3.7c0,0,0,0,0-0.1v-4.7c0-2.1-1.7-3.8-3.8-3.8h-9.8v-24
			c0-6.4-3.4-10.7-9.2-11.9c0,0,0,0,0,0c0-0.2,0-0.4,0-0.6c0-4.4-3.6-8.1-8.1-8.1c-4.4,0-8.1,3.6-8.1,8.1c0,0.1,0,0.2,0,0.3h-2.5
			c0-0.1,0-0.2,0-0.3c0-4.4-3.6-8.1-8.1-8.1c-4.4,0-8.1,3.6-8.1,8.1c0,0.1,0,0.2,0,0.3h-2.5c0-0.1,0-0.2,0-0.3
			c0-4.4-3.6-8.1-8.1-8.1s-8.1,3.6-8.1,8.1c0,0.1,0,0.2,0,0.3H46c0-0.1,0-0.2,0-0.3c0-4.4-3.6-8.1-8.1-8.1s-8.1,3.6-8.1,8.1
			c0,0.2,0,0.4,0,0.6c-5.7,1.2-9.1,5.5-9.1,11.8v17.4h-5.7V44.8c0-1.8-1.5-3.3-3.3-3.3h0H7.2C5.5,41.6,4,43,4,44.7v35.3
			c0,1.8,1.4,3.3,3.2,3.3c0,0,0,0,0,0h4.6c1.8,0,3.3-1.4,3.3-3.2c0,0,0,0,0,0v-12h5.7v13.7c0,7.7,4.9,12.7,12.5,12.7h25.4
			c0,0,0,0,0,0c0.7,0,1.4,0.4,1.7,1c0.1,0.1,0.1,0.2,0.2,0.3l8.6,10.8c1.5,2.4,3.3,4.6,7.3,4.6h22.4c7.9,0,11.8-3.6,11.8-10.9v-1.7
			H121c1.8,0,3.4-1.5,3.4-3.4V86C124.3,84.2,122.8,82.7,121,82.7z"/>
	</g>
	<path class="st1" d="M24.5,39.5c0-5.5,3.1-8.5,8.8-8.5h64.9c5.7,0,8.8,3,8.8,8.5v2H24.6c-0.1,0-0.1,0-0.2,0V39.5z"/>
	<path class="st2" d="M42.6,67.2h7.6c0.1,1.8,0.3,3.5,1,4.8H40c-4.4,0-4.9-1.1-4.9-7.5v-7.2c0-1.9,0.9-2.8,2.4-2.8
		c1.8,0,2.2,1.4,2.2,2.8v7.2C39.8,66.8,40.3,67.2,42.6,67.2z"/>
	<path class="st2" d="M80,67.2h7.6c0.1,1.8,0.3,3.5,1,4.8H77.5c-4.4,0-4.9-1.1-4.9-7.5v-7.2c0-1.9,0.9-2.8,2.4-2.8
		c1.8,0,2.2,1.4,2.2,2.8v7.2C77.3,66.8,77.7,67.2,80,67.2z"/>
	<path class="st2" d="M61.3,67.2h7.6c0.1,1.8,0.3,3.5,1,4.8H58.8c-4.4,0-4.9-1.1-4.9-7.5v-7.2c0-1.9,0.9-2.8,2.4-2.8
		c1.8,0,2.2,1.4,2.2,2.8v7.2C58.5,66.8,59,67.2,61.3,67.2z"/>
	<path class="st2" d="M96.2,72.1c-4.4,0-4.9-1.1-4.9-7.5v-7.2c0-1.9,0.9-2.8,2.4-2.8c1.8,0,2.2,1.4,2.2,2.8v7.2
		c0,2.2,0.4,2.6,2.8,2.6h21.6c0,0,0.1,0,0.1,0.1V72c0,0,0,0.1-0.1,0.1H96.2z"/>
	<path class="st1" d="M106.9,100.4c0,5.2-2.2,7.2-8.1,7.2H76.4c-1.8,0-2.7-0.6-4.2-3c0-0.1-0.1-0.1-0.1-0.2l-8.5-10.8
		c-1-1.8-2.9-2.9-4.9-2.9c0,0,0,0,0,0H33.2c-5.5,0-8.8-3.4-8.8-9V45.2c0.1,0,82.4,0,82.4,0v18.3h-5.3h-2v-5.7c0-3.2-1.8-6.6-5.8-6.7
		l-0.2,0c-3.4,0.1-6.1,2.8-6.1,6.2v6.2h-4.7h-1.9v-5.7c0-3.2-1.8-6.6-5.8-6.7L75,51c-3.4,0.1-6.1,2.8-6.1,6.2v6.2h-4.7h-2v-5.7
		c0-3.2-1.8-6.6-5.8-6.7l-0.2,0c-3.4,0.1-6.1,2.8-6.1,6.2v6.2h-6.7v-5.7c0-3.2-1.8-6.6-5.8-6.7l-0.2,0c-3.4,0.1-6.1,2.8-6.1,6.2v7.3
		c0,5.5,0,11.2,8.6,11.2h66.9V100.4z"/>
	<path class="st0" d="M97.4,81.3L83.3,98l-9-11.4c-0.7-0.8-1.9-1-2.7-0.3c-0.8,0.7-1,1.9-0.3,2.7l10.5,13.2c0.4,0.4,0.9,0.7,1.5,0.7
		c0,0,0,0,0,0c0.6,0,1.1-0.2,1.5-0.7l15.6-18.5c0.7-0.8,0.6-2-0.2-2.7C99.3,80.4,98.1,80.5,97.4,81.3z"/>
	<rect x="110.6" y="86.4" class="st1" width="10" height="8.7"/>
	<path class="st2" d="M93.4,22.7c2.4,0,4.4,2,4.4,4.4c0,0.1,0,0.2,0,0.3h-8.7c0-0.1,0-0.2,0-0.3C89.1,24.6,91,22.7,93.4,22.7z"/>
	<path class="st2" d="M74.8,22.7c2.4,0,4.4,2,4.4,4.4c0,0.1,0,0.2,0,0.3h-8.7c0-0.1,0-0.2,0-0.3C70.4,24.6,72.4,22.7,74.8,22.7z"/>
	<path class="st2" d="M56.2,22.7c2.4,0,4.4,2,4.4,4.4c0,0.1,0,0.2,0,0.3h-8.7c0-0.1,0-0.2,0-0.3C51.8,24.6,53.8,22.7,56.2,22.7z"/>
	<path class="st2" d="M37.9,22.7c2.4,0,4.4,2,4.4,4.4c0,0.1,0,0.2,0,0.3h-8.7c0-0.1,0-0.2,0-0.3C33.6,24.6,35.5,22.7,37.9,22.7z"/>
	<rect x="7.7" y="45.2" class="st1" width="3.7" height="34.4"/>
	<rect x="15.1" y="60.5" class="st1" width="5.7" height="3.7"/>
</g>
</svg>
